PathFileType	4	(X/Y/Z)	C:\Users\u0088756\Documents\documenten\software\SoftwareProjects\DC_TrackingSimulation\Data\Patient2\InputData\MarkerFile_DataSel.trc
DataRate	CameraRate	NumFrames	NumMarkers	Units	OrigDataRate	OrigDataStartFrame	OrigNumFrames
200.000000	200.000000	8	45	m	200.000000	97	257
Frame#	Times		CLAV		LSHO		LUA1		LELB		LLA1		LWRA		LWRB		LFIN		RSHO		RUA1		RELB		RLA1		RWRA		RWRB		RFIN		LASI		RASI		RPSI		LPSI		LTHI3		LKNE		LKNEmed		LTIB		LTIB2		LTIB3		LANK		LANKmed		LHEE		LTOE		LLatFoot		RTHI		RTHI2		RTHI3		RKNE		RTIB		RTIB2		RTIB3		RANK		RANKmed		RHEE		RTOE		RLatFoot		Unlabeled51		Unlabeled52		*52
			X1	Y1	Z1	X2	Y2	Z2	X3	Y3	Z3	X4	Y4	Z4	X5	Y5	Z5	X6	Y6	Z6	X7	Y7	Z7	X8	Y8	Z8	X9	Y9	Z9	X10	Y10	Z10	X11	Y11	Z11	X12	Y12	Z12	X13	Y13	Z13	X14	Y14	Z14	X15	Y15	Z15	X16	Y16	Z16	X17	Y17	Z17	X18	Y18	Z18	X19	Y19	Z19	X20	Y20	Z20	X21	Y21	Z21	X22	Y22	Z22	X23	Y23	Z23	X24	Y24	Z24	X25	Y25	Z25	X26	Y26	Z26	X27	Y27	Z27	X28	Y28	Z28	X29	Y29	Z29	X30	Y30	Z30	X31	Y31	Z31	X32	Y32	Z32	X33	Y33	Z33	X34	Y34	Z34	X35	Y35	Z35	X36	Y36	Z36	X37	Y37	Z37	X38	Y38	Z38	X39	Y39	Z39	X40	Y40	Z40	X41	Y41	Z41	X42	Y42	Z42	X43	Y43	Z43	X44	Y44	Z44	X45	Y45	Z45

97	0.48	0.82236	1.4571	-0.061792	0.72744	1.4733	-0.27946	0.81053	1.2309	-0.31532	0.80523	1.1269	-0.32807	0.91974	1.0433	-0.34714	1.0132	0.94119	-0.30043	0.96496	0.91157	-0.36004	1.0429	0.88871	-0.36218	0.72851	1.4995	0.15015	0.68576	1.271	0.23144	0.65315	1.1662	0.24487	0.69382	1.0388	0.28095	0.72395	0.90078	0.24048	0.66063	0.90315	0.29189	0.71115	0.85857	0.29574	0.83303	0.97144	-0.15677	0.84397	0.98474	0.084697	0.6	1.0179	0.00563	0.59483	1.0241	-0.062944	0.73031	0.66259	-0.22076	0.71327	0.46848	-0.16775	0.72748	0.47056	-0.051685	0.68897	0.27602	-0.17095	0.6297	0.2763	-0.17131	0.66022	0.22836	-0.16597	0.63127	0.064496	-0.11674	0.67877	0.081586	-0.031168	0.57018	0.016911	-0.046083	0.80317	0.026569	-0.098568	0.70044	-0.011671	-0.1525	0.91115	0.76243	0.1598	0.86344	0.72474	0.1672	0.90996	0.71036	0.16301	0.95896	0.51181	0.12025	0.89637	0.31278	0.13402	0.84521	0.32824	0.14028	0.85657	0.27469	0.13284	0.80162	0.12358	0.1004	0.82944	0.13014	0.006655	0.72078	0.091076	0.042902	0.95214	0.048356	0.04985	0.86847	0.030171	0.12446	-0.38778	-0.02528	-0.67875	-0.47313	-0.031043	0.6725	0.68085	1.6206	-0.00056254
98	0.485	0.82706	1.4567	-0.062095	0.7319	1.473	-0.27968	0.81513	1.2306	-0.31549	0.80981	1.1266	-0.32845	0.92483	1.0437	-0.34728	1.0191	0.94244	-0.30034	0.97095	0.91216	-0.35969	1.0491	0.88995	-0.3619	0.73326	1.499	0.1499	0.69034	1.2706	0.23121	0.65756	1.1659	0.24465	0.69814	1.0385	0.28094	0.72817	0.90039	0.2406	0.66473	0.90284	0.29189	0.7153	0.8583	0.29596	0.83704	0.97084	-0.157	0.84845	0.98454	0.084436	0.60495	1.0182	0.0057902	0.5993	1.024	-0.062791	0.73233	0.66223	-0.22062	0.7139	0.46827	-0.16749	0.72812	0.47014	-0.051315	0.68905	0.27596	-0.1708	0.6298	0.27647	-0.17106	0.66064	0.22825	-0.16553	0.63117	0.064516	-0.11653	0.67873	0.081486	-0.031034	0.57002	0.016904	-0.045951	0.80298	0.026491	-0.098577	0.70013	-0.01179	-0.15249	0.91571	0.76226	0.15929	0.86803	0.72461	0.1669	0.91446	0.71019	0.16239	0.96338	0.51155	0.11938	0.90637	0.31098	0.13338	0.85477	0.32489	0.13979	0.8675	0.27167	0.13231	0.81696	0.11889	0.10008	0.84444	0.12634	0.0063293	0.73702	0.084196	0.042643	0.96964	0.048046	0.0494	0.88654	0.027361	0.12399	-0.38289	-0.025301	-0.67874	-0.46816	-0.031004	0.67267	0.68558	1.6202	-0.00068363
99	0.49	0.8317	1.4563	-0.062369	0.73632	1.4727	-0.27987	0.81958	1.2303	-0.31592	0.81438	1.1263	-0.32887	0.92985	1.0439	-0.34738	1.0249	0.94355	-0.30021	0.97693	0.91268	-0.35939	1.0553	0.89113	-0.36157	0.73857	1.4988	0.14974	0.69496	1.2702	0.23098	0.66207	1.1655	0.24445	0.70252	1.0381	0.28091	0.73245	0.89995	0.24071	0.66903	0.9025	0.29193	0.71954	0.85798	0.29617	0.8411	0.97024	-0.15719	0.85295	0.98424	0.084196	0.60923	1.0176	0.0059983	0.60366	1.0238	-0.062558	0.73432	0.66188	-0.22046	0.71461	0.46807	-0.16759	0.72934	0.46977	-0.051141	0.6892	0.2759	-0.17072	0.62994	0.27665	-0.17079	0.66014	0.22851	-0.16561	0.631	0.064506	-0.11636	0.67865	0.081446	-0.030908	0.56989	0.016912	-0.045857	0.80277	0.026369	-0.098582	0.69999	-0.011873	-0.15248	0.92021	0.76197	0.15876	0.87243	0.72436	0.16661	0.91884	0.70987	0.16181	0.96759	0.51119	0.11854	0.91655	0.30922	0.13301	0.86431	0.32159	0.13936	0.87845	0.26871	0.13185	0.8325	0.11429	0.099844	0.85958	0.12269	0.0060681	0.7535	0.077486	0.042415	0.98708	0.047806	0.049015	0.90446	0.024607	0.12359	-0.37806	-0.025286	-0.67877	-0.46336	-0.03112	0.67244	0.69032	1.6198	-0.0008085
100	0.495	0.83636	1.4558	-0.062662	0.74073	1.4722	-0.27997	0.82411	1.23	-0.31607	0.81891	1.1259	-0.32925	0.93483	1.0441	-0.34747	1.0306	0.94464	-0.30006	0.9828	0.91316	-0.359	1.0613	0.89219	-0.36123	0.74357	1.4984	0.14953	0.69966	1.2697	0.23075	0.66669	1.1651	0.24427	0.70696	1.0377	0.28089	0.73684	0.89945	0.2408	0.6734	0.90213	0.29196	0.72388	0.85759	0.29633	0.84522	0.96964	-0.15735	0.85751	0.98394	0.083966	0.61374	1.0175	0.0060704	0.60799	1.0236	-0.062348	0.73637	0.66152	-0.22026	0.71536	0.46785	-0.16749	0.73095	0.46967	-0.051439	0.69135	0.27567	-0.17135	0.63014	0.27685	-0.17054	0.66065	0.22844	-0.1652	0.63089	0.064586	-0.11623	0.67861	0.081376	-0.030797	0.56971	0.016897	-0.045771	0.80263	0.026256	-0.098616	0.69975	-0.011987	-0.15245	0.92452	0.76153	0.15823	0.87682	0.72403	0.16637	0.9231	0.7094	0.16121	0.97161	0.51071	0.1177	0.92647	0.30742	0.13252	0.87387	0.31827	0.13891	0.88945	0.26587	0.13142	0.84812	0.10993	0.099633	0.87495	0.11924	0.0058429	0.7701	0.071176	0.04235	1.0044	0.047646	0.048671	0.92253	0.022217	0.12334	-0.37319	-0.0253	-0.67877	-0.45847	-0.031025	0.67264	0.69506	1.6194	-0.00095311
101	0.5	0.84108	1.4553	-0.06289	0.7453	1.4719	-0.28019	0.82856	1.2296	-0.31632	0.82343	1.1254	-0.32963	0.93978	1.0443	-0.34753	1.0362	0.94564	-0.29985	0.98857	0.91356	-0.3586	1.0673	0.89318	-0.36085	0.74829	1.4977	0.14938	0.70445	1.2692	0.23051	0.67145	1.1647	0.24407	0.71156	1.0373	0.28085	0.74133	0.89892	0.24086	0.67787	0.90171	0.29199	0.7283	0.85714	0.29649	0.84934	0.96894	-0.1575	0.86204	0.98354	0.083814	0.61837	1.0172	0.0062356	0.61243	1.0234	-0.062146	0.7385	0.66117	-0.22008	0.71611	0.46768	-0.16737	0.73211	0.46934	-0.05134	0.69096	0.27577	-0.17133	0.63038	0.27709	-0.17029	0.66077	0.22852	-0.16503	0.63076	0.064506	-0.11601	0.67855	0.081306	-0.030632	0.56956	0.016873	-0.045662	0.80287	0.026616	-0.09894	0.69952	-0.012098	-0.15243	0.92882	0.76098	0.15773	0.88103	0.72353	0.16608	0.92725	0.70884	0.16064	0.97548	0.51015	0.1169	0.9363	0.30575	0.13198	0.88345	0.31506	0.13856	0.90061	0.26317	0.13096	0.86382	0.10574	0.099521	0.89029	0.11597	0.0056782	0.787	0.065026	0.042026	1.0217	0.047666	0.048369	0.94054	0.01977	0.12285	-0.3683	-0.02536	-0.67875	-0.45367	-0.031009	0.67261	0.69982	1.6189	-0.0010368
102	0.505	0.8457	1.4547	-0.063159	0.74983	1.4715	-0.28029	0.833	1.2291	-0.31657	0.82789	1.125	-0.33	0.94464	1.0444	-0.34756	1.0417	0.94654	-0.29962	0.9943	0.91388	-0.35822	1.0731	0.89412	-0.36046	0.7528	1.4968	0.14919	0.70933	1.2686	0.23029	0.67625	1.1641	0.24388	0.71622	1.0367	0.28082	0.74592	0.89832	0.24094	0.68238	0.9012	0.29201	0.73281	0.8566	0.29663	0.8535	0.96834	-0.15764	0.86661	0.98304	0.083642	0.62304	1.017	0.0063466	0.61684	1.0231	-0.061944	0.74059	0.6608	-0.21989	0.71688	0.46753	-0.16721	0.73342	0.46897	-0.051252	0.69222	0.27562	-0.17118	0.63061	0.27725	-0.17005	0.66092	0.22864	-0.16487	0.63071	0.064566	-0.11586	0.67852	0.081246	-0.030467	0.56947	0.016863	-0.045569	0.80214	0.026202	-0.098306	0.69925	-0.01225	-0.15243	0.93299	0.76031	0.15723	0.88501	0.72285	0.16576	0.93129	0.70812	0.16005	0.97919	0.50948	0.11611	0.9461	0.3042	0.13157	0.89304	0.31194	0.13829	0.91172	0.26062	0.13056	0.87974	0.1018	0.099433	0.90571	0.11293	0.005581	0.80368	0.059346	0.042057	1.039	0.047896	0.048144	0.95873	0.017814	0.12255	-0.36356	-0.025349	-0.67871	-0.44875	-0.03107	0.67258	0.7046	1.6183	-0.0011442
103	0.51	0.85046	1.4542	-0.063371	0.75436	1.471	-0.28039	0.83741	1.2286	-0.31678	0.83234	1.1245	-0.33039	0.94947	1.0444	-0.34754	1.0471	0.94734	-0.29937	0.99992	0.91411	-0.35781	1.0789	0.89499	-0.36005	0.75773	1.4962	0.14906	0.7143	1.2679	0.23009	0.68114	1.1635	0.24368	0.72102	1.0362	0.28076	0.75062	0.89768	0.24102	0.68704	0.90068	0.29199	0.73745	0.85607	0.29676	0.85771	0.96764	-0.15776	0.87122	0.98254	0.083502	0.62771	1.0167	0.0065013	0.62138	1.0228	-0.061779	0.74271	0.66046	-0.2197	0.71783	0.46734	-0.16707	0.7346	0.46861	-0.051113	0.69249	0.27565	-0.17103	0.63105	0.27751	-0.16977	0.66113	0.22873	-0.1647	0.63065	0.064566	-0.11564	0.67862	0.081176	-0.03034	0.56943	0.016881	-0.045479	0.80165	0.025778	-0.098136	0.69915	-0.012322	-0.15241	0.93708	0.75948	0.15676	0.88902	0.72218	0.1655	0.93521	0.70731	0.15951	0.9828	0.50868	0.11532	0.95593	0.30276	0.13111	0.90263	0.30892	0.13808	0.92278	0.25821	0.13026	0.89544	0.098216	0.09954	0.92128	0.11016	0.0054795	0.82059	0.053936	0.041959	1.0561	0.048406	0.047968	0.97658	0.016148	0.12243	-0.35867	-0.02536	-0.67875	-0.44392	-0.031105	0.67263	0.70942	1.6178	-0.0012072
104	0.515	0.85518	1.4536	-0.063575	0.75893	1.4704	-0.28046	0.84182	1.228	-0.31698	0.83672	1.1239	-0.33072	0.95422	1.0443	-0.34753	1.0524	0.94804	-0.2991	1.0055	0.91428	-0.3574	1.0846	0.89577	-0.35961	0.76274	1.4956	0.14892	0.71934	1.2672	0.22987	0.68616	1.1629	0.2435	0.72588	1.0356	0.2807	0.75544	0.89702	0.24106	0.69184	0.90008	0.292	0.74218	0.85544	0.29686	0.86199	0.96694	-0.15784	0.87587	0.98204	0.083399	0.63244	1.0163	0.0065921	0.62596	1.0225	-0.061614	0.74492	0.66011	-0.21955	0.71898	0.46715	-0.16694	0.73521	0.46805	-0.050492	0.69295	0.2756	-0.17093	0.6315	0.27771	-0.16953	0.66146	0.22883	-0.16455	0.63063	0.064566	-0.1155	0.67871	0.081116	-0.030209	0.56933	0.016892	-0.045363	0.80161	0.025638	-0.098136	0.69895	-0.012428	-0.15236	0.94109	0.75852	0.15631	0.89285	0.72135	0.16521	0.939	0.70632	0.15897	0.9863	0.50775	0.11459	0.96557	0.30153	0.13061	0.91217	0.30603	0.13794	0.93392	0.25595	0.13005	0.91148	0.094926	0.099518	0.93683	0.10767	0.0054488	0.83764	0.048946	0.041809	1.0733	0.049266	0.047916	0.99398	0.0146	0.12223	-0.35385	-0.025349	-0.67873	-0.4391	-0.031209	0.67237	0.71422	1.6172	-0.0012878
